<svg width="732" height="1568" viewBox="0 0 732 1568" class="keymap" xmlns="http://www.w3.org/2000/svg" xmlns:xlink="http://www.w3.org/1999/xlink">
<style>/* inherit to force styles through use tags */
svg path {
    fill: inherit;
}

/* font and background color specifications */
svg.keymap {
    font-family: SFMono-Regular,Consolas,Liberation Mono,Menlo,monospace;
    font-size: 14px;
    font-kerning: normal;
    text-rendering: optimizeLegibility;
    fill: #24292e;
}

/* default key styling */
rect.key {
    fill: #f6f8fa;
}

rect.key, rect.combo {
    stroke: #c9cccf;
    stroke-width: 1;
}

/* default key side styling, only used is draw_key_sides is set */
rect.side {
    filter: brightness(90%);
}

/* color accent for combo boxes */
rect.combo, rect.combo-separate {
    fill: #cdf;
}

/* color accent for held keys */
rect.held, rect.combo.held {
    fill: #fdd;
}

/* color accent for ghost (optional) keys */
rect.ghost, rect.combo.ghost {
    stroke-dasharray: 4, 4;
    stroke-width: 2;
}

text {
    text-anchor: middle;
    dominant-baseline: middle;
}

/* styling for layer labels */
text.label {
    font-weight: bold;
    text-anchor: start;
    stroke: white;
    stroke-width: 4;
    paint-order: stroke;
}

/* styling for optional footer */
text.footer {
    text-anchor: end;
    dominant-baseline: auto;
    stroke: white;
    stroke-width: 4;
    paint-order: stroke;
}

/* styling for combo tap, and key non-tap label text */
text.combo, text.hold, text.shifted, text.left, text.right {
    font-size: 11px;
}

text.hold {
    text-anchor: middle;
    dominant-baseline: auto;
}

text.shifted {
    text-anchor: middle;
    dominant-baseline: hanging;
}

text.left {
    text-anchor: start;
}

text.right {
    text-anchor: end;
}

text.layer-activator {
    text-decoration: underline;
}

/* styling for hold/shifted label text in combo box */
text.combo.hold, text.combo.shifted, text.combo.left, text.combo.right {
    font-size: 8px;
}

/* lighter symbol for transparent keys */
text.trans {
    fill: #7b7e81;
}

/* styling for combo dendrons */
path.combo {
    stroke-width: 1;
    stroke: gray;
    fill: none;
}

/* Start Tabler Icons Cleanup */
/* cannot use height/width with glyphs */
.icon-tabler > path {
    fill: inherit;
    stroke: inherit;
    stroke-width: 2;
}
/* hide tabler's default box */
.icon-tabler > path[stroke="none"][fill="none"] {
    visibility: hidden;
}
/* End Tabler Icons Cleanup */

@media (prefers-color-scheme: dark) {
svg.keymap { fill: #d1d6db; }
rect.key { fill: #3f4750; }
rect.key, rect.combo { stroke: #60666c; }
rect.combo, rect.combo-separate { fill: #1f3d7a; }
rect.held, rect.combo.held { fill: #854747; }
text.label, text.footer { stroke: black; }
text.trans { fill: #7e8184; }
path.combo { stroke: #7f7f7f; }

}</style>
<g transform="translate(30, 0)" class="layer-QWERTY">
<text x="0" y="28" class="label" id="QWERTY">QWERTY:</text>
<g transform="translate(0, 98)">
<g transform="translate(28, 28)" class="key keypos-0">
<rect rx="6" ry="6" x="-26" y="-26" width="52" height="52" class="key"/>
<text x="0" y="0" class="key tap">Q</text>
</g>
<g transform="translate(84, 28)" class="key keypos-1">
<rect rx="6" ry="6" x="-26" y="-26" width="52" height="52" class="key"/>
<text x="0" y="0" class="key tap">W</text>
</g>
<g transform="translate(140, 28)" class="key keypos-2">
<rect rx="6" ry="6" x="-26" y="-26" width="52" height="52" class="key"/>
<text x="0" y="0" class="key tap">E</text>
</g>
<g transform="translate(196, 28)" class="key keypos-3">
<rect rx="6" ry="6" x="-26" y="-26" width="52" height="52" class="key"/>
<text x="0" y="0" class="key tap">R</text>
</g>
<g transform="translate(252, 28)" class="key keypos-4">
<rect rx="6" ry="6" x="-26" y="-26" width="52" height="52" class="key"/>
<text x="0" y="0" class="key tap">T</text>
</g>
<g transform="translate(420, 28)" class="key keypos-5">
<rect rx="6" ry="6" x="-26" y="-26" width="52" height="52" class="key"/>
<text x="0" y="0" class="key tap">Y</text>
</g>
<g transform="translate(476, 28)" class="key keypos-6">
<rect rx="6" ry="6" x="-26" y="-26" width="52" height="52" class="key"/>
<text x="0" y="0" class="key tap">U</text>
</g>
<g transform="translate(532, 28)" class="key keypos-7">
<rect rx="6" ry="6" x="-26" y="-26" width="52" height="52" class="key"/>
<text x="0" y="0" class="key tap">I</text>
</g>
<g transform="translate(588, 28)" class="key keypos-8">
<rect rx="6" ry="6" x="-26" y="-26" width="52" height="52" class="key"/>
<text x="0" y="0" class="key tap">O</text>
</g>
<g transform="translate(644, 28)" class="key keypos-9">
<rect rx="6" ry="6" x="-26" y="-26" width="52" height="52" class="key"/>
<text x="0" y="0" class="key tap">P</text>
</g>
<g transform="translate(28, 84)" class="key keypos-10">
<rect rx="6" ry="6" x="-26" y="-26" width="52" height="52" class="key"/>
<text x="0" y="0" class="key tap">
<tspan x="0" dy="-0.6em">LCTL</tspan><tspan x="0" dy="1.2em">A</tspan>
</text>
</g>
<g transform="translate(84, 84)" class="key keypos-11">
<rect rx="6" ry="6" x="-26" y="-26" width="52" height="52" class="key"/>
<text x="0" y="0" class="key tap">
<tspan x="0" dy="-0.6em">LALT</tspan><tspan x="0" dy="1.2em">S</tspan>
</text>
</g>
<g transform="translate(140, 84)" class="key keypos-12">
<rect rx="6" ry="6" x="-26" y="-26" width="52" height="52" class="key"/>
<text x="0" y="0" class="key tap">
<tspan x="0" dy="-0.6em">LGUI</tspan><tspan x="0" dy="1.2em">D</tspan>
</text>
</g>
<g transform="translate(196, 84)" class="key keypos-13">
<rect rx="6" ry="6" x="-26" y="-26" width="52" height="52" class="key"/>
<text x="0" y="0" class="key tap">
<tspan x="0" dy="-0.6em">LSFT</tspan><tspan x="0" dy="1.2em">F</tspan>
</text>
</g>
<g transform="translate(252, 84)" class="key keypos-14">
<rect rx="6" ry="6" x="-26" y="-26" width="52" height="52" class="key"/>
<text x="0" y="0" class="key tap">
<tspan x="0" dy="-0.6em">RALT</tspan><tspan x="0" dy="1.2em">G</tspan>
</text>
</g>
<g transform="translate(420, 84)" class="key keypos-15">
<rect rx="6" ry="6" x="-26" y="-26" width="52" height="52" class="key"/>
<text x="0" y="0" class="key tap">
<tspan x="0" dy="-0.6em">LALT</tspan><tspan x="0" dy="1.2em">H</tspan>
</text>
</g>
<g transform="translate(476, 84)" class="key keypos-16">
<rect rx="6" ry="6" x="-26" y="-26" width="52" height="52" class="key"/>
<text x="0" y="0" class="key tap">
<tspan x="0" dy="-0.6em">RSFT</tspan><tspan x="0" dy="1.2em">J</tspan>
</text>
</g>
<g transform="translate(532, 84)" class="key keypos-17">
<rect rx="6" ry="6" x="-26" y="-26" width="52" height="52" class="key"/>
<text x="0" y="0" class="key tap">
<tspan x="0" dy="-0.6em">RGUI</tspan><tspan x="0" dy="1.2em">K</tspan>
</text>
</g>
<g transform="translate(588, 84)" class="key keypos-18">
<rect rx="6" ry="6" x="-26" y="-26" width="52" height="52" class="key"/>
<text x="0" y="0" class="key tap">
<tspan x="0" dy="-0.6em">RALT</tspan><tspan x="0" dy="1.2em">L</tspan>
</text>
</g>
<g transform="translate(644, 84)" class="key keypos-19">
<rect rx="6" ry="6" x="-26" y="-26" width="52" height="52" class="key"/>
<text x="0" y="0" class="key tap">
<tspan x="0" dy="-0.6em">RCTL</tspan><tspan x="0" dy="1.2em">;</tspan>
</text>
</g>
<g transform="translate(28, 140)" class="key keypos-20">
<rect rx="6" ry="6" x="-26" y="-26" width="52" height="52" class="key"/>
<text x="0" y="0" class="key tap">Z</text>
</g>
<g transform="translate(84, 140)" class="key keypos-21">
<rect rx="6" ry="6" x="-26" y="-26" width="52" height="52" class="key"/>
<text x="0" y="0" class="key tap">X</text>
</g>
<g transform="translate(140, 140)" class="key keypos-22">
<rect rx="6" ry="6" x="-26" y="-26" width="52" height="52" class="key"/>
<text x="0" y="0" class="key tap">C</text>
</g>
<g transform="translate(196, 140)" class="key keypos-23">
<rect rx="6" ry="6" x="-26" y="-26" width="52" height="52" class="key"/>
<text x="0" y="0" class="key tap">V</text>
</g>
<g transform="translate(252, 140)" class="key keypos-24">
<rect rx="6" ry="6" x="-26" y="-26" width="52" height="52" class="key"/>
<text x="0" y="0" class="key tap">B</text>
</g>
<g transform="translate(420, 140)" class="key keypos-25">
<rect rx="6" ry="6" x="-26" y="-26" width="52" height="52" class="key"/>
<text x="0" y="0" class="key tap">N</text>
</g>
<g transform="translate(476, 140)" class="key keypos-26">
<rect rx="6" ry="6" x="-26" y="-26" width="52" height="52" class="key"/>
<text x="0" y="0" class="key tap">M</text>
</g>
<g transform="translate(532, 140)" class="key keypos-27">
<rect rx="6" ry="6" x="-26" y="-26" width="52" height="52" class="key"/>
<text x="0" y="0" class="key tap">,</text>
</g>
<g transform="translate(588, 140)" class="key keypos-28">
<rect rx="6" ry="6" x="-26" y="-26" width="52" height="52" class="key"/>
<text x="0" y="0" class="key tap">.</text>
</g>
<g transform="translate(644, 140)" class="key keypos-29">
<rect rx="6" ry="6" x="-26" y="-26" width="52" height="52" class="key"/>
<text x="0" y="0" class="key tap">/</text>
</g>
<g transform="translate(42, 210)" class="key keypos-30">
<rect rx="6" ry="6" x="-40" y="-26" width="80" height="52" class="key"/>
<text x="0" y="0" class="key tap">CONTROL</text>
</g>
<g transform="translate(196, 210)" class="key keypos-31">
<rect rx="6" ry="6" x="-26" y="-26" width="52" height="52" class="key"/>
<text x="0" y="0" class="key tap">
<tspan x="0" dy="-0.6em">NUM</tspan><tspan x="0" dy="1.2em">ESC</tspan>
</text>
</g>
<g transform="translate(266, 210)" class="key keypos-32">
<rect rx="6" ry="6" x="-40" y="-26" width="80" height="52" class="key"/>
<text x="0" y="0" class="key tap">
<tspan x="0" dy="-0.6em">NAV</tspan><tspan x="0" dy="1.2em">SPACE</tspan>
</text>
</g>
<g transform="translate(406, 210)" class="key keypos-33">
<rect rx="6" ry="6" x="-40" y="-26" width="80" height="52" class="key"/>
<text x="0" y="0" class="key tap">
<tspan x="0" dy="-0.6em">SYM</tspan><tspan x="0" dy="1.2em">SPACE</tspan>
</text>
</g>
<g transform="translate(476, 210)" class="key keypos-34">
<rect rx="6" ry="6" x="-26" y="-26" width="52" height="52" class="key"/>
<text x="0" y="0" class="key tap">
<tspan x="0" dy="-0.6em">FUN</tspan><tspan x="0" dy="1.2em">ENTER</tspan>
</text>
</g>
<g transform="translate(630, 210)" class="key keypos-35">
<rect rx="6" ry="6" x="-40" y="-26" width="80" height="52" class="key"/>
<text x="0" y="0" class="key tap"><tspan style="font-size: 78%">BACKSPACE</tspan></text>
</g>
<g class="combo combopos-0">
<rect rx="6" ry="6" x="546" y="15" width="28" height="26" class="combo"/>
<text x="560" y="28" class="combo tap">
<tspan x="560" dy="-0.6em">&quot;</tspan><tspan x="560" dy="1.2em">&#x27;</tspan>
</text>
</g>
<g class="combo combopos-1">
<path d="M336,-29 h-302 a6.0,6.0 0 0 0 -6.0,6.0 v32" class="combo"/>
<path d="M336,-29 h302 a6.0,6.0 0 0 1 6.0,6.0 v32" class="combo"/>
<rect rx="6" ry="6" x="306" y="-42" width="60" height="26" class="combo"/>
<text x="336" y="-29" class="combo tap"><tspan style="font-size: 78%">CAPS_LOCK</tspan></text>
</g>
<g class="combo combopos-2">
<path d="M336,41 h-134 a6.0,6.0 0 0 0 -6.0,6.0 v18" class="combo"/>
<path d="M336,41 h134 a6.0,6.0 0 0 1 6.0,6.0 v18" class="combo"/>
<rect rx="6" ry="6" x="306" y="28" width="60" height="26" class="combo"/>
<text x="336" y="41" class="combo tap"><tspan style="font-size: 78%">CAPS_WORD</tspan></text>
</g>
</g>
</g>
<g transform="translate(30, 336)" class="layer-NUM">
<text x="0" y="28" class="label" id="NUM">NUM:</text>
<g transform="translate(0, 56)">
<g transform="translate(28, 28)" class="key keypos-0">
<rect rx="6" ry="6" x="-26" y="-26" width="52" height="52" class="key"/>
</g>
<g transform="translate(84, 28)" class="key keypos-1">
<rect rx="6" ry="6" x="-26" y="-26" width="52" height="52" class="key"/>
</g>
<g transform="translate(140, 28)" class="key keypos-2">
<rect rx="6" ry="6" x="-26" y="-26" width="52" height="52" class="key"/>
</g>
<g transform="translate(196, 28)" class="key keypos-3">
<rect rx="6" ry="6" x="-26" y="-26" width="52" height="52" class="key"/>
</g>
<g transform="translate(252, 28)" class="key keypos-4">
<rect rx="6" ry="6" x="-26" y="-26" width="52" height="52" class="key"/>
</g>
<g transform="translate(420, 28)" class="key keypos-5">
<rect rx="6" ry="6" x="-26" y="-26" width="52" height="52" class="key"/>
<text x="0" y="0" class="key tap">+</text>
</g>
<g transform="translate(476, 28)" class="key keypos-6">
<rect rx="6" ry="6" x="-26" y="-26" width="52" height="52" class="key"/>
<text x="0" y="0" class="key tap">7</text>
</g>
<g transform="translate(532, 28)" class="key keypos-7">
<rect rx="6" ry="6" x="-26" y="-26" width="52" height="52" class="key"/>
<text x="0" y="0" class="key tap">8</text>
</g>
<g transform="translate(588, 28)" class="key keypos-8">
<rect rx="6" ry="6" x="-26" y="-26" width="52" height="52" class="key"/>
<text x="0" y="0" class="key tap">9</text>
</g>
<g transform="translate(644, 28)" class="key keypos-9">
<rect rx="6" ry="6" x="-26" y="-26" width="52" height="52" class="key"/>
<text x="0" y="0" class="key tap">/</text>
</g>
<g transform="translate(28, 84)" class="key keypos-10">
<rect rx="6" ry="6" x="-26" y="-26" width="52" height="52" class="key"/>
<text x="0" y="0" class="key tap">LCTL</text>
</g>
<g transform="translate(84, 84)" class="key keypos-11">
<rect rx="6" ry="6" x="-26" y="-26" width="52" height="52" class="key"/>
<text x="0" y="0" class="key tap">LALT</text>
</g>
<g transform="translate(140, 84)" class="key keypos-12">
<rect rx="6" ry="6" x="-26" y="-26" width="52" height="52" class="key"/>
<text x="0" y="0" class="key tap">LGUI</text>
</g>
<g transform="translate(196, 84)" class="key keypos-13">
<rect rx="6" ry="6" x="-26" y="-26" width="52" height="52" class="key"/>
<text x="0" y="0" class="key tap">LSFT</text>
</g>
<g transform="translate(252, 84)" class="key keypos-14">
<rect rx="6" ry="6" x="-26" y="-26" width="52" height="52" class="key"/>
</g>
<g transform="translate(420, 84)" class="key keypos-15">
<rect rx="6" ry="6" x="-26" y="-26" width="52" height="52" class="key"/>
<text x="0" y="0" class="key tap">-</text>
</g>
<g transform="translate(476, 84)" class="key keypos-16">
<rect rx="6" ry="6" x="-26" y="-26" width="52" height="52" class="key"/>
<text x="0" y="0" class="key tap">4</text>
</g>
<g transform="translate(532, 84)" class="key keypos-17">
<rect rx="6" ry="6" x="-26" y="-26" width="52" height="52" class="key"/>
<text x="0" y="0" class="key tap">5</text>
</g>
<g transform="translate(588, 84)" class="key keypos-18">
<rect rx="6" ry="6" x="-26" y="-26" width="52" height="52" class="key"/>
<text x="0" y="0" class="key tap">6</text>
</g>
<g transform="translate(644, 84)" class="key keypos-19">
<rect rx="6" ry="6" x="-26" y="-26" width="52" height="52" class="key"/>
<text x="0" y="0" class="key tap">*</text>
</g>
<g transform="translate(28, 140)" class="key keypos-20">
<rect rx="6" ry="6" x="-26" y="-26" width="52" height="52" class="key"/>
</g>
<g transform="translate(84, 140)" class="key keypos-21">
<rect rx="6" ry="6" x="-26" y="-26" width="52" height="52" class="key"/>
</g>
<g transform="translate(140, 140)" class="key keypos-22">
<rect rx="6" ry="6" x="-26" y="-26" width="52" height="52" class="key"/>
</g>
<g transform="translate(196, 140)" class="key keypos-23">
<rect rx="6" ry="6" x="-26" y="-26" width="52" height="52" class="key"/>
</g>
<g transform="translate(252, 140)" class="key keypos-24">
<rect rx="6" ry="6" x="-26" y="-26" width="52" height="52" class="key"/>
</g>
<g transform="translate(420, 140)" class="key keypos-25">
<rect rx="6" ry="6" x="-26" y="-26" width="52" height="52" class="key"/>
</g>
<g transform="translate(476, 140)" class="key keypos-26">
<rect rx="6" ry="6" x="-26" y="-26" width="52" height="52" class="key"/>
<text x="0" y="0" class="key tap">1</text>
</g>
<g transform="translate(532, 140)" class="key keypos-27">
<rect rx="6" ry="6" x="-26" y="-26" width="52" height="52" class="key"/>
<text x="0" y="0" class="key tap">2</text>
</g>
<g transform="translate(588, 140)" class="key keypos-28">
<rect rx="6" ry="6" x="-26" y="-26" width="52" height="52" class="key"/>
<text x="0" y="0" class="key tap">3</text>
</g>
<g transform="translate(644, 140)" class="key keypos-29">
<rect rx="6" ry="6" x="-26" y="-26" width="52" height="52" class="key"/>
<text x="0" y="0" class="key tap">.</text>
</g>
<g transform="translate(42, 210)" class="key keypos-30">
<rect rx="6" ry="6" x="-40" y="-26" width="80" height="52" class="key"/>
<text x="0" y="0" class="key tap">SHIFT</text>
</g>
<g transform="translate(196, 210)" class="key keypos-31">
<rect rx="6" ry="6" x="-26" y="-26" width="52" height="52" class="key"/>
</g>
<g transform="translate(266, 210)" class="key keypos-32">
<rect rx="6" ry="6" x="-40" y="-26" width="80" height="52" class="key"/>
</g>
<g transform="translate(406, 210)" class="key keypos-33">
<rect rx="6" ry="6" x="-40" y="-26" width="80" height="52" class="key"/>
<text x="0" y="0" class="key tap">E</text>
</g>
<g transform="translate(476, 210)" class="key keypos-34">
<rect rx="6" ry="6" x="-26" y="-26" width="52" height="52" class="key"/>
<text x="0" y="0" class="key tap">0</text>
</g>
<g transform="translate(630, 210)" class="key keypos-35">
<rect rx="6" ry="6" x="-40" y="-26" width="80" height="52" class="key"/>
<text x="0" y="0" class="key tap"><tspan style="font-size: 78%">BACKSPACE</tspan></text>
</g>
</g>
</g>
<g transform="translate(30, 630)" class="layer-NAV">
<text x="0" y="28" class="label" id="NAV">NAV:</text>
<g transform="translate(0, 56)">
<g transform="translate(28, 28)" class="key keypos-0">
<rect rx="6" ry="6" x="-26" y="-26" width="52" height="52" class="key"/>
</g>
<g transform="translate(84, 28)" class="key keypos-1">
<rect rx="6" ry="6" x="-26" y="-26" width="52" height="52" class="key"/>
</g>
<g transform="translate(140, 28)" class="key keypos-2">
<rect rx="6" ry="6" x="-26" y="-26" width="52" height="52" class="key"/>
</g>
<g transform="translate(196, 28)" class="key keypos-3">
<rect rx="6" ry="6" x="-26" y="-26" width="52" height="52" class="key"/>
</g>
<g transform="translate(252, 28)" class="key keypos-4">
<rect rx="6" ry="6" x="-26" y="-26" width="52" height="52" class="key"/>
<text x="0" y="0" class="key tap">TAB</text>
</g>
<g transform="translate(420, 28)" class="key keypos-5">
<rect rx="6" ry="6" x="-26" y="-26" width="52" height="52" class="key"/>
<text x="0" y="0" class="key tap">INS</text>
</g>
<g transform="translate(476, 28)" class="key keypos-6">
<rect rx="6" ry="6" x="-26" y="-26" width="52" height="52" class="key"/>
<text x="0" y="0" class="key tap">HOME</text>
</g>
<g transform="translate(532, 28)" class="key keypos-7">
<rect rx="6" ry="6" x="-26" y="-26" width="52" height="52" class="key"/>
</g>
<g transform="translate(588, 28)" class="key keypos-8">
<rect rx="6" ry="6" x="-26" y="-26" width="52" height="52" class="key"/>
<text x="0" y="0" class="key tap">PGUP</text>
</g>
<g transform="translate(644, 28)" class="key keypos-9">
<rect rx="6" ry="6" x="-26" y="-26" width="52" height="52" class="key"/>
</g>
<g transform="translate(28, 84)" class="key keypos-10">
<rect rx="6" ry="6" x="-26" y="-26" width="52" height="52" class="key"/>
<text x="0" y="0" class="key tap">LCTL</text>
</g>
<g transform="translate(84, 84)" class="key keypos-11">
<rect rx="6" ry="6" x="-26" y="-26" width="52" height="52" class="key"/>
<text x="0" y="0" class="key tap">LALT</text>
</g>
<g transform="translate(140, 84)" class="key keypos-12">
<rect rx="6" ry="6" x="-26" y="-26" width="52" height="52" class="key"/>
<text x="0" y="0" class="key tap">LGUI</text>
</g>
<g transform="translate(196, 84)" class="key keypos-13">
<rect rx="6" ry="6" x="-26" y="-26" width="52" height="52" class="key"/>
<text x="0" y="0" class="key tap">LSFT</text>
</g>
<g transform="translate(252, 84)" class="key keypos-14">
<rect rx="6" ry="6" x="-26" y="-26" width="52" height="52" class="key"/>
<text x="0" y="0" class="key tap">CAPS</text>
</g>
<g transform="translate(420, 84)" class="key keypos-15">
<rect rx="6" ry="6" x="-26" y="-26" width="52" height="52" class="key"/>
<text x="0" y="0" class="key tap">DEL</text>
</g>
<g transform="translate(476, 84)" class="key keypos-16">
<rect rx="6" ry="6" x="-26" y="-26" width="52" height="52" class="key"/>
<text x="0" y="0" class="key tap">END</text>
</g>
<g transform="translate(532, 84)" class="key keypos-17">
<rect rx="6" ry="6" x="-26" y="-26" width="52" height="52" class="key"/>
<text x="0" y="0" class="key tap">UP</text>
</g>
<g transform="translate(588, 84)" class="key keypos-18">
<rect rx="6" ry="6" x="-26" y="-26" width="52" height="52" class="key"/>
<text x="0" y="0" class="key tap">PGDN</text>
</g>
<g transform="translate(644, 84)" class="key keypos-19">
<rect rx="6" ry="6" x="-26" y="-26" width="52" height="52" class="key"/>
</g>
<g transform="translate(28, 140)" class="key keypos-20">
<rect rx="6" ry="6" x="-26" y="-26" width="52" height="52" class="key"/>
</g>
<g transform="translate(84, 140)" class="key keypos-21">
<rect rx="6" ry="6" x="-26" y="-26" width="52" height="52" class="key"/>
</g>
<g transform="translate(140, 140)" class="key keypos-22">
<rect rx="6" ry="6" x="-26" y="-26" width="52" height="52" class="key"/>
</g>
<g transform="translate(196, 140)" class="key keypos-23">
<rect rx="6" ry="6" x="-26" y="-26" width="52" height="52" class="key"/>
</g>
<g transform="translate(252, 140)" class="key keypos-24">
<rect rx="6" ry="6" x="-26" y="-26" width="52" height="52" class="key"/>
</g>
<g transform="translate(420, 140)" class="key keypos-25">
<rect rx="6" ry="6" x="-26" y="-26" width="52" height="52" class="key"/>
</g>
<g transform="translate(476, 140)" class="key keypos-26">
<rect rx="6" ry="6" x="-26" y="-26" width="52" height="52" class="key"/>
<text x="0" y="0" class="key tap">LEFT</text>
</g>
<g transform="translate(532, 140)" class="key keypos-27">
<rect rx="6" ry="6" x="-26" y="-26" width="52" height="52" class="key"/>
<text x="0" y="0" class="key tap">DOWN</text>
</g>
<g transform="translate(588, 140)" class="key keypos-28">
<rect rx="6" ry="6" x="-26" y="-26" width="52" height="52" class="key"/>
<text x="0" y="0" class="key tap">RGHT</text>
</g>
<g transform="translate(644, 140)" class="key keypos-29">
<rect rx="6" ry="6" x="-26" y="-26" width="52" height="52" class="key"/>
</g>
<g transform="translate(42, 210)" class="key keypos-30">
<rect rx="6" ry="6" x="-40" y="-26" width="80" height="52" class="key"/>
<text x="0" y="0" class="key tap">CONTROL</text>
</g>
<g transform="translate(196, 210)" class="key keypos-31">
<rect rx="6" ry="6" x="-26" y="-26" width="52" height="52" class="key"/>
</g>
<g transform="translate(266, 210)" class="key keypos-32">
<rect rx="6" ry="6" x="-40" y="-26" width="80" height="52" class="key"/>
</g>
<g transform="translate(406, 210)" class="key keypos-33">
<rect rx="6" ry="6" x="-40" y="-26" width="80" height="52" class="key"/>
</g>
<g transform="translate(476, 210)" class="key keypos-34">
<rect rx="6" ry="6" x="-26" y="-26" width="52" height="52" class="key"/>
</g>
<g transform="translate(630, 210)" class="key keypos-35">
<rect rx="6" ry="6" x="-40" y="-26" width="80" height="52" class="key"/>
<text x="0" y="0" class="key tap"><tspan style="font-size: 78%">BACKSPACE</tspan></text>
</g>
</g>
</g>
<g transform="translate(30, 924)" class="layer-SYMBOL">
<text x="0" y="28" class="label" id="SYMBOL">SYMBOL:</text>
<g transform="translate(0, 56)">
<g transform="translate(28, 28)" class="key keypos-0">
<rect rx="6" ry="6" x="-26" y="-26" width="52" height="52" class="key"/>
<text x="0" y="0" class="key tap">`</text>
</g>
<g transform="translate(84, 28)" class="key keypos-1">
<rect rx="6" ry="6" x="-26" y="-26" width="52" height="52" class="key"/>
<text x="0" y="0" class="key tap">~</text>
</g>
<g transform="translate(140, 28)" class="key keypos-2">
<rect rx="6" ry="6" x="-26" y="-26" width="52" height="52" class="key"/>
<text x="0" y="0" class="key tap">|</text>
</g>
<g transform="translate(196, 28)" class="key keypos-3">
<rect rx="6" ry="6" x="-26" y="-26" width="52" height="52" class="key"/>
</g>
<g transform="translate(252, 28)" class="key keypos-4">
<rect rx="6" ry="6" x="-26" y="-26" width="52" height="52" class="key"/>
<text x="0" y="0" class="key tap">
<tspan x="0" dy="-0.6em">{</tspan><tspan x="0" dy="1.2em">[</tspan>
</text>
</g>
<g transform="translate(420, 28)" class="key keypos-5">
<rect rx="6" ry="6" x="-26" y="-26" width="52" height="52" class="key"/>
<text x="0" y="0" class="key tap">
<tspan x="0" dy="-0.6em">}</tspan><tspan x="0" dy="1.2em">]</tspan>
</text>
</g>
<g transform="translate(476, 28)" class="key keypos-6">
<rect rx="6" ry="6" x="-26" y="-26" width="52" height="52" class="key"/>
<text x="0" y="0" class="key tap">&amp;</text>
</g>
<g transform="translate(532, 28)" class="key keypos-7">
<rect rx="6" ry="6" x="-26" y="-26" width="52" height="52" class="key"/>
<text x="0" y="0" class="key tap">*</text>
</g>
<g transform="translate(588, 28)" class="key keypos-8">
<rect rx="6" ry="6" x="-26" y="-26" width="52" height="52" class="key"/>
<text x="0" y="0" class="key tap">&#x27;</text>
</g>
<g transform="translate(644, 28)" class="key keypos-9">
<rect rx="6" ry="6" x="-26" y="-26" width="52" height="52" class="key"/>
<text x="0" y="0" class="key tap">&quot;</text>
</g>
<g transform="translate(28, 84)" class="key keypos-10">
<rect rx="6" ry="6" x="-26" y="-26" width="52" height="52" class="key"/>
</g>
<g transform="translate(84, 84)" class="key keypos-11">
<rect rx="6" ry="6" x="-26" y="-26" width="52" height="52" class="key"/>
</g>
<g transform="translate(140, 84)" class="key keypos-12">
<rect rx="6" ry="6" x="-26" y="-26" width="52" height="52" class="key"/>
</g>
<g transform="translate(196, 84)" class="key keypos-13">
<rect rx="6" ry="6" x="-26" y="-26" width="52" height="52" class="key"/>
</g>
<g transform="translate(252, 84)" class="key keypos-14">
<rect rx="6" ry="6" x="-26" y="-26" width="52" height="52" class="key"/>
<text x="0" y="0" class="key tap">(</text>
</g>
<g transform="translate(420, 84)" class="key keypos-15">
<rect rx="6" ry="6" x="-26" y="-26" width="52" height="52" class="key"/>
<text x="0" y="0" class="key tap">)</text>
</g>
<g transform="translate(476, 84)" class="key keypos-16">
<rect rx="6" ry="6" x="-26" y="-26" width="52" height="52" class="key"/>
<text x="0" y="0" class="key tap">$</text>
</g>
<g transform="translate(532, 84)" class="key keypos-17">
<rect rx="6" ry="6" x="-26" y="-26" width="52" height="52" class="key"/>
<text x="0" y="0" class="key tap">%</text>
</g>
<g transform="translate(588, 84)" class="key keypos-18">
<rect rx="6" ry="6" x="-26" y="-26" width="52" height="52" class="key"/>
<text x="0" y="0" class="key tap">^</text>
</g>
<g transform="translate(644, 84)" class="key keypos-19">
<rect rx="6" ry="6" x="-26" y="-26" width="52" height="52" class="key"/>
</g>
<g transform="translate(28, 140)" class="key keypos-20">
<rect rx="6" ry="6" x="-26" y="-26" width="52" height="52" class="key"/>
</g>
<g transform="translate(84, 140)" class="key keypos-21">
<rect rx="6" ry="6" x="-26" y="-26" width="52" height="52" class="key"/>
</g>
<g transform="translate(140, 140)" class="key keypos-22">
<rect rx="6" ry="6" x="-26" y="-26" width="52" height="52" class="key"/>
</g>
<g transform="translate(196, 140)" class="key keypos-23">
<rect rx="6" ry="6" x="-26" y="-26" width="52" height="52" class="key"/>
</g>
<g transform="translate(252, 140)" class="key keypos-24">
<rect rx="6" ry="6" x="-26" y="-26" width="52" height="52" class="key"/>
<text x="0" y="0" class="key tap">&lt;</text>
</g>
<g transform="translate(420, 140)" class="key keypos-25">
<rect rx="6" ry="6" x="-26" y="-26" width="52" height="52" class="key"/>
<text x="0" y="0" class="key tap">&gt;</text>
</g>
<g transform="translate(476, 140)" class="key keypos-26">
<rect rx="6" ry="6" x="-26" y="-26" width="52" height="52" class="key"/>
<text x="0" y="0" class="key tap">!</text>
</g>
<g transform="translate(532, 140)" class="key keypos-27">
<rect rx="6" ry="6" x="-26" y="-26" width="52" height="52" class="key"/>
<text x="0" y="0" class="key tap">@</text>
</g>
<g transform="translate(588, 140)" class="key keypos-28">
<rect rx="6" ry="6" x="-26" y="-26" width="52" height="52" class="key"/>
<text x="0" y="0" class="key tap">#</text>
</g>
<g transform="translate(644, 140)" class="key keypos-29">
<rect rx="6" ry="6" x="-26" y="-26" width="52" height="52" class="key"/>
<text x="0" y="0" class="key tap">_</text>
</g>
<g transform="translate(42, 210)" class="key keypos-30">
<rect rx="6" ry="6" x="-40" y="-26" width="80" height="52" class="key"/>
<text x="0" y="0" class="key tap">SHIFT</text>
</g>
<g transform="translate(196, 210)" class="key keypos-31">
<rect rx="6" ry="6" x="-26" y="-26" width="52" height="52" class="key"/>
</g>
<g transform="translate(266, 210)" class="key keypos-32">
<rect rx="6" ry="6" x="-40" y="-26" width="80" height="52" class="key"/>
</g>
<g transform="translate(406, 210)" class="key keypos-33">
<rect rx="6" ry="6" x="-40" y="-26" width="80" height="52" class="key"/>
</g>
<g transform="translate(476, 210)" class="key keypos-34">
<rect rx="6" ry="6" x="-26" y="-26" width="52" height="52" class="key"/>
</g>
<g transform="translate(630, 210)" class="key keypos-35">
<rect rx="6" ry="6" x="-40" y="-26" width="80" height="52" class="key"/>
<text x="0" y="0" class="key tap"><tspan style="font-size: 78%">BACKSPACE</tspan></text>
</g>
</g>
</g>
<g transform="translate(30, 1218)" class="layer-FUNCTION">
<text x="0" y="28" class="label" id="FUNCTION">FUNCTION:</text>
<g transform="translate(0, 56)">
<g transform="translate(28, 28)" class="key keypos-0">
<rect rx="6" ry="6" x="-26" y="-26" width="52" height="52" class="key"/>
</g>
<g transform="translate(84, 28)" class="key keypos-1">
<rect rx="6" ry="6" x="-26" y="-26" width="52" height="52" class="key"/>
</g>
<g transform="translate(140, 28)" class="key keypos-2">
<rect rx="6" ry="6" x="-26" y="-26" width="52" height="52" class="key"/>
</g>
<g transform="translate(196, 28)" class="key keypos-3">
<rect rx="6" ry="6" x="-26" y="-26" width="52" height="52" class="key"/>
</g>
<g transform="translate(252, 28)" class="key keypos-4">
<rect rx="6" ry="6" x="-26" y="-26" width="52" height="52" class="key"/>
</g>
<g transform="translate(420, 28)" class="key keypos-5">
<rect rx="6" ry="6" x="-26" y="-26" width="52" height="52" class="key"/>
</g>
<g transform="translate(476, 28)" class="key keypos-6">
<rect rx="6" ry="6" x="-26" y="-26" width="52" height="52" class="key"/>
<text x="0" y="0" class="key tap">F7</text>
</g>
<g transform="translate(532, 28)" class="key keypos-7">
<rect rx="6" ry="6" x="-26" y="-26" width="52" height="52" class="key"/>
<text x="0" y="0" class="key tap">F8</text>
</g>
<g transform="translate(588, 28)" class="key keypos-8">
<rect rx="6" ry="6" x="-26" y="-26" width="52" height="52" class="key"/>
<text x="0" y="0" class="key tap">F9</text>
</g>
<g transform="translate(644, 28)" class="key keypos-9">
<rect rx="6" ry="6" x="-26" y="-26" width="52" height="52" class="key"/>
<text x="0" y="0" class="key tap">F12</text>
</g>
<g transform="translate(28, 84)" class="key keypos-10">
<rect rx="6" ry="6" x="-26" y="-26" width="52" height="52" class="key"/>
<text x="0" y="0" class="key tap">LCTL</text>
</g>
<g transform="translate(84, 84)" class="key keypos-11">
<rect rx="6" ry="6" x="-26" y="-26" width="52" height="52" class="key"/>
<text x="0" y="0" class="key tap">LALT</text>
</g>
<g transform="translate(140, 84)" class="key keypos-12">
<rect rx="6" ry="6" x="-26" y="-26" width="52" height="52" class="key"/>
<text x="0" y="0" class="key tap">LGUI</text>
</g>
<g transform="translate(196, 84)" class="key keypos-13">
<rect rx="6" ry="6" x="-26" y="-26" width="52" height="52" class="key"/>
<text x="0" y="0" class="key tap">LSFT</text>
</g>
<g transform="translate(252, 84)" class="key keypos-14">
<rect rx="6" ry="6" x="-26" y="-26" width="52" height="52" class="key"/>
</g>
<g transform="translate(420, 84)" class="key keypos-15">
<rect rx="6" ry="6" x="-26" y="-26" width="52" height="52" class="key"/>
</g>
<g transform="translate(476, 84)" class="key keypos-16">
<rect rx="6" ry="6" x="-26" y="-26" width="52" height="52" class="key"/>
<text x="0" y="0" class="key tap">F4</text>
</g>
<g transform="translate(532, 84)" class="key keypos-17">
<rect rx="6" ry="6" x="-26" y="-26" width="52" height="52" class="key"/>
<text x="0" y="0" class="key tap">F5</text>
</g>
<g transform="translate(588, 84)" class="key keypos-18">
<rect rx="6" ry="6" x="-26" y="-26" width="52" height="52" class="key"/>
<text x="0" y="0" class="key tap">F6</text>
</g>
<g transform="translate(644, 84)" class="key keypos-19">
<rect rx="6" ry="6" x="-26" y="-26" width="52" height="52" class="key"/>
<text x="0" y="0" class="key tap">F11</text>
</g>
<g transform="translate(28, 140)" class="key keypos-20">
<rect rx="6" ry="6" x="-26" y="-26" width="52" height="52" class="key"/>
</g>
<g transform="translate(84, 140)" class="key keypos-21">
<rect rx="6" ry="6" x="-26" y="-26" width="52" height="52" class="key"/>
</g>
<g transform="translate(140, 140)" class="key keypos-22">
<rect rx="6" ry="6" x="-26" y="-26" width="52" height="52" class="key"/>
</g>
<g transform="translate(196, 140)" class="key keypos-23">
<rect rx="6" ry="6" x="-26" y="-26" width="52" height="52" class="key"/>
</g>
<g transform="translate(252, 140)" class="key keypos-24">
<rect rx="6" ry="6" x="-26" y="-26" width="52" height="52" class="key"/>
</g>
<g transform="translate(420, 140)" class="key keypos-25">
<rect rx="6" ry="6" x="-26" y="-26" width="52" height="52" class="key"/>
</g>
<g transform="translate(476, 140)" class="key keypos-26">
<rect rx="6" ry="6" x="-26" y="-26" width="52" height="52" class="key"/>
<text x="0" y="0" class="key tap">F1</text>
</g>
<g transform="translate(532, 140)" class="key keypos-27">
<rect rx="6" ry="6" x="-26" y="-26" width="52" height="52" class="key"/>
<text x="0" y="0" class="key tap">F2</text>
</g>
<g transform="translate(588, 140)" class="key keypos-28">
<rect rx="6" ry="6" x="-26" y="-26" width="52" height="52" class="key"/>
<text x="0" y="0" class="key tap">F3</text>
</g>
<g transform="translate(644, 140)" class="key keypos-29">
<rect rx="6" ry="6" x="-26" y="-26" width="52" height="52" class="key"/>
<text x="0" y="0" class="key tap">F10</text>
</g>
<g transform="translate(42, 210)" class="key keypos-30">
<rect rx="6" ry="6" x="-40" y="-26" width="80" height="52" class="key"/>
<text x="0" y="0" class="key tap">CONTROL</text>
</g>
<g transform="translate(196, 210)" class="key keypos-31">
<rect rx="6" ry="6" x="-26" y="-26" width="52" height="52" class="key"/>
</g>
<g transform="translate(266, 210)" class="key keypos-32">
<rect rx="6" ry="6" x="-40" y="-26" width="80" height="52" class="key"/>
</g>
<g transform="translate(406, 210)" class="key keypos-33">
<rect rx="6" ry="6" x="-40" y="-26" width="80" height="52" class="key"/>
</g>
<g transform="translate(476, 210)" class="key keypos-34">
<rect rx="6" ry="6" x="-26" y="-26" width="52" height="52" class="key"/>
</g>
<g transform="translate(630, 210)" class="key keypos-35">
<rect rx="6" ry="6" x="-40" y="-26" width="80" height="52" class="key"/>
<text x="0" y="0" class="key tap"><tspan style="font-size: 78%">BACKSPACE</tspan></text>
</g>
<g class="combo combopos-0">
<path d="M560,183 h-78 a6.0,6.0 0 0 1 -6.0,-6.0 v-18" class="combo"/>
<path d="M560,183 h78 a6.0,6.0 0 0 0 6.0,-6.0 v-18" class="combo"/>
<rect rx="6" ry="6" x="530" y="170" width="60" height="26" class="combo"/>
<text x="560" y="183" class="combo tap">QK_BOOT</text>
</g>
</g>
</g>
<text x="702.0" y="1540.0" class="footer">Created with <a href="https://github.com/caksoylar/keymap-drawer">keymap-drawer</a></text></svg>
